<svg width="24" height="24" viewBox="0 0 24 24" fill="none" xmlns="http://www.w3.org/2000/svg">
<path fill-rule="evenodd" clip-rule="evenodd" d="M19 3V21H8C6.34315 21 5 19.6569 5 18V6C5 4.34315 6.34315 3 8 3H19Z" stroke="white" stroke-width="2" stroke-linecap="round" stroke-linejoin="round"/>
<path d="M13.9 15.5329L13.6945 15.077L13.4 15.2098V15.5329H13.9ZM12.5 5L12.889 4.68583L12.5 4.20425L12.111 4.68583L12.5 5ZM11.1 15.5329H11.6V15.2098L11.3055 15.077L11.1 15.5329ZM11.1 18H10.6V18.5H11.1V18ZM13.9 18V18.5H14.4V18H13.9ZM15.5 12.2222C15.5 13.5061 14.7517 14.6005 13.6945 15.077L14.1055 15.9887C15.5206 15.3508 16.5 13.9 16.5 12.2222H15.5ZM12.5 5C12.111 5.31417 12.111 5.31412 12.111 5.31409C12.111 5.31411 12.111 5.31409 12.111 5.31412C12.111 5.31417 12.1111 5.31428 12.1113 5.31446C12.1116 5.31482 12.1121 5.31544 12.1128 5.31632C12.1142 5.31807 12.1164 5.32086 12.1194 5.32465C12.1255 5.33224 12.1348 5.34387 12.147 5.35935C12.1715 5.39032 12.2078 5.43672 12.2544 5.49713C12.3476 5.61798 12.4815 5.79476 12.6424 6.01622C12.9648 6.45965 13.394 7.07967 13.8223 7.78684C14.2515 8.49528 14.6748 9.28287 14.9895 10.0622C15.3066 10.8475 15.5 11.5916 15.5 12.2222H16.5C16.5 11.4084 16.2559 10.5275 15.9167 9.68777C15.5752 8.84213 15.1235 8.00472 14.6777 7.26872C14.231 6.53144 13.7852 5.88757 13.4513 5.42823C13.2842 5.1983 13.1446 5.01396 13.0464 4.88655C12.9972 4.82283 12.9584 4.7733 12.9316 4.73939C12.9182 4.72243 12.9078 4.70937 12.9006 4.70039C12.8971 4.69589 12.8943 4.69242 12.8923 4.68999C12.8913 4.68877 12.8906 4.68781 12.89 4.68712C12.8897 4.68677 12.8895 4.68649 12.8893 4.68628C12.8892 4.68617 12.8892 4.68606 12.8891 4.686C12.889 4.68591 12.889 4.68583 12.5 5ZM9.5 12.2222C9.5 11.5916 9.69338 10.8475 10.0105 10.0622C10.3252 9.28287 10.7485 8.49528 11.1777 7.78684C11.606 7.07967 12.0352 6.45965 12.3576 6.01622C12.5185 5.79476 12.6524 5.61798 12.7456 5.49713C12.7922 5.43672 12.8285 5.39032 12.853 5.35935C12.8652 5.34387 12.8745 5.33224 12.8806 5.32465C12.8836 5.32086 12.8858 5.31807 12.8872 5.31632C12.8879 5.31544 12.8884 5.31482 12.8887 5.31446C12.8889 5.31428 12.889 5.31417 12.889 5.31412C12.889 5.31409 12.889 5.31411 12.889 5.31409C12.889 5.31412 12.889 5.31417 12.5 5C12.111 4.68583 12.111 4.68591 12.1109 4.686C12.1108 4.68606 12.1108 4.68617 12.1107 4.68628C12.1105 4.68649 12.1103 4.68677 12.11 4.68712C12.1094 4.68781 12.1087 4.68877 12.1077 4.68999C12.1057 4.69242 12.1029 4.69589 12.0994 4.70039C12.0922 4.70937 12.0818 4.72243 12.0684 4.73939C12.0416 4.7733 12.0028 4.82283 11.9536 4.88655C11.8554 5.01396 11.7158 5.1983 11.5487 5.42823C11.2148 5.88757 10.769 6.53144 10.3223 7.26872C9.8765 8.00472 9.42476 8.84213 9.08325 9.68777C8.74412 10.5275 8.5 11.4084 8.5 12.2222H9.5ZM11.3055 15.077C10.2483 14.6005 9.5 13.5061 9.5 12.2222H8.5C8.5 13.9 9.4794 15.3508 10.8945 15.9887L11.3055 15.077ZM11.6 18V15.5329H10.6V18H11.6ZM13.9 17.5H11.1V18.5H13.9V17.5ZM13.4 15.5329V18H14.4V15.5329H13.4ZM12 5V10.7778H13V5H12ZM12.7 11.5C12.7 11.6376 12.5958 11.7222 12.5 11.7222V12.7222C13.1774 12.7222 13.7 12.1602 13.7 11.5H12.7ZM12.5 11.7222C12.4042 11.7222 12.3 11.6376 12.3 11.5H11.3C11.3 12.1602 11.8226 12.7222 12.5 12.7222V11.7222ZM12.3 11.5C12.3 11.3624 12.4042 11.2778 12.5 11.2778V10.2778C11.8226 10.2778 11.3 10.8398 11.3 11.5H12.3ZM12.5 11.2778C12.5958 11.2778 12.7 11.3624 12.7 11.5H13.7C13.7 10.8398 13.1774 10.2778 12.5 10.2778V11.2778Z" fill="white"/>
</svg>
