<svg width="414" height="383" viewBox="0 0 414 383" fill="none" xmlns="http://www.w3.org/2000/svg">
<path d="M-54.1824 239.854C-0.0571585 269.397 67.9975 256.075 107.01 208.296C111.328 203.009 118.963 201.889 124.626 205.7L147.731 221.243C154.138 225.555 155.485 234.401 150.693 240.463C138.475 255.915 123.974 269.166 107.444 279.96C87.6387 292.893 65.7861 301.764 42.4863 306.326C19.1864 310.889 -4.39676 310.913 -27.6073 306.401C-46.9844 302.633 -65.4031 295.834 -82.538 286.126C-89.2567 282.318 -91.3408 273.615 -87.0301 267.204L-71.4806 244.092C-67.6679 238.427 -60.1696 236.584 -54.1824 239.854Z" fill="#FAF8F5"/>
<path d="M114.151 134.77C99.1807 74.9496 43.2504 33.9519 -18.322 37.657C-25.1366 38.0665 -31.136 33.2092 -32.1721 26.4652L-36.4086 -1.05661C-37.5852 -8.69175 -31.9914 -15.6766 -24.2853 -16.2627C-4.64462 -17.756 14.9278 -16.074 34.0705 -11.2408C57.0041 -5.44822 78.3394 4.60753 97.4861 18.6414C116.633 32.6753 132.639 49.9969 145.06 70.1205C155.428 86.9202 162.91 105.073 167.391 124.249C169.15 131.772 164.162 139.202 156.525 140.378L128.989 144.613C122.243 145.653 115.806 141.39 114.151 134.77Z" fill="#FAF8F5"/>
<path d="M282.427 90.6627C343.437 81.5624 389.678 29.8867 391.951 -31.7324C392.203 -38.5527 397.621 -44.0482 404.435 -44.4296L432.248 -45.9791C439.962 -46.4086 446.379 -40.1664 446.214 -32.447C445.797 -12.761 442.231 6.54767 435.561 25.1257C427.574 47.3808 415.494 67.6369 399.665 85.3278C383.835 103.019 365.037 117.265 343.798 127.674C326.069 136.361 307.268 142.049 287.744 144.651C280.086 145.67 273.167 139.99 272.737 132.279L271.187 104.476C270.814 97.6636 275.676 91.6703 282.427 90.6627Z" fill="#FAF8F5"/>
<path d="M322.305 210.975C353.746 264.02 419.058 287.329 477.003 266.181C483.415 263.841 490.551 266.779 493.473 272.948L505.397 298.112C508.702 305.092 505.342 313.384 498.126 316.148C479.729 323.191 460.494 327.177 440.769 328.012C417.137 329.014 393.819 325.478 371.458 317.499C349.096 309.52 328.81 297.494 311.16 281.76C296.426 268.623 284.065 253.369 274.292 236.271C270.461 229.566 273.115 221.019 280.096 217.709L305.269 205.782C311.441 202.86 318.829 205.105 322.305 210.975Z" fill="#FAF8F5"/>
</svg>
